# xmcd
#
# Track frame offsets:
# 150
# 14061
# 31717
# 41084
# 56732
# 73165
# 85375
# 97483
# 112329
# 125173
# 138259
# 149258
# 162632
# 184349
# 195520
# 213619
# 235820
# 251088
# 270193
# 285617
# 303798
# 319596
# 333490
# 346236
#
# Disc length: 4723 seconds
#
# Revision: 0
# Processed by: cddbd v1.5.1PL2 Copyright (c) Steve Scherf et al.
# Submitted via: Audion 3.0.2 (http://www.panic.com/audion/)
#
DISCID=7c127118
DTITLE=The Blank Tapes - Landfair
DYEAR=1900
DGENRE=
TTITLE0=landfair
TTITLE1=i saw the satellites
TTITLE2=play a song and singalong
TTITLE3=it's so hard to let go
TTITLE4=i tell myself again and again
TTITLE5=i've found...
TTITLE6=somebody new
TTITLE7=mt. lonely
TTITLE8=clever disguises
TTITLE9=i still remember you
TTITLE10=that bind
TTITLE11=this is my day
TTITLE12=oil and water
TTITLE13=together forever
TTITLE14=turn the lights down
TTITLE15=sleepy heads
TTITLE16=poor old sensitive heart
TTITLE17=boad down the river
TTITLE18=tornado
TTITLE19=rain cloud
TTITLE20=blue skies
TTITLE21=there goes the day
TTITLE22=last lover
TTITLE23=untitled track
EXTD=
EXTT0=
EXTT1=
EXTT2=
EXTT3=
EXTT4=
EXTT5=
EXTT6=
EXTT7=
EXTT8=
EXTT9=
EXTT10=
EXTT11=
EXTT12=
EXTT13=
EXTT14=
EXTT15=
EXTT16=
EXTT17=
EXTT18=
EXTT19=
EXTT20=
EXTT21=
EXTT22=
EXTT23=
PLAYORDER=
